<svg xmlns="http://www.w3.org/2000/svg" width="90" height="25" viewBox="0 0 90 25" fill="none" class="injected-svg" data-src="/assets/images/icons/Wtw_Logo.svg" xmlns:xlink="http://www.w3.org/1999/xlink">
<g clip-path="url(#clip0_2_1067-3)">
<path d="M27.035 0L22.8235 20.612L18.5906 0H13.5211L7.40049 25H12.5701L16.0308 9.78637L19.5702 25H26.0483L32.0974 0H27.035ZM5.06237 0H0L5.54143 23.037L8.15127 12.7815L5.06237 0Z" fill="white"></path>
<path d="M48.0854 0L50.2304 4.33025H54.6135V0H48.0854ZM34.9575 0V4.33025H42.2436V24.9711H47.3417V0H34.9575Z" fill="white"></path>
<path d="M84.4944 0L80.2829 20.612L76.0642 0H70.9733L64.8598 25H70.0223L73.4902 9.78637L77.0295 25H83.5005L89.5567 0H84.4944ZM62.5217 0H57.4736L63.0151 23.037L65.6249 12.7815L62.5217 0Z" fill="white"></path>
</g>
<defs>
<clipPath id="clip0_2_1067-3">
<rect width="90" height="25" fill="white"></rect>
</clipPath>
</defs>
</svg>